<svg xmlns="http://www.w3.org/2000/svg" viewBox="0 0 920 760" role="img" aria-label="Raposa da Fox Delivery em uma moto de entregas">
  <defs>
    <linearGradient id="foxCoat" x1="0" y1="0" x2="1" y2="1">
      <stop offset="0" stop-color="#ffb853"/>
      <stop offset="1" stop-color="#ff6927"/>
    </linearGradient>
    <linearGradient id="foxRed" x1="0" y1="0" x2="1" y2="1">
      <stop offset="0" stop-color="#ff6f25"/>
      <stop offset="1" stop-color="#df2316"/>
    </linearGradient>
    <linearGradient id="foxSeat" x1="0" y1="0" x2="1" y2="1">
      <stop offset="0" stop-color="#60312a"/>
      <stop offset="1" stop-color="#271613"/>
    </linearGradient>
    <linearGradient id="bagPaper" x1="0" y1="0" x2="1" y2="1">
      <stop offset="0" stop-color="#f7d9ab"/>
      <stop offset="1" stop-color="#efb566"/>
    </linearGradient>
  </defs>
  <ellipse cx="480" cy="694" rx="256" ry="28" fill="rgba(94,27,13,.16)"/>
  <g transform="translate(198 410)">
    <circle cx="120" cy="214" r="74" fill="#332c2d"/>
    <circle cx="392" cy="214" r="74" fill="#332c2d"/>
    <circle cx="120" cy="214" r="36" fill="#f5f3f0"/>
    <circle cx="392" cy="214" r="36" fill="#f5f3f0"/>
    <path d="M116 206l92-140h120l104 102" fill="none" stroke="#6c3422" stroke-width="20" stroke-linecap="round" stroke-linejoin="round"/>
    <path d="M170 194h236c35 0 49-30 34-58l-38-71H252l-82 129z" fill="url(#foxRed)"/>
    <path d="M246 84h142c34 0 46 18 52 34l16 42H332z" fill="#ff8128"/>
    <path d="M168 193c42 12 104 18 170 18 66 0 126-8 190-22" fill="none" stroke="#922717" stroke-width="10" stroke-linecap="round"/>
    <rect x="168" y="122" width="152" height="30" rx="15" fill="url(#foxSeat)"/>
    <path d="M482 162h52l24 28h-62z" fill="#f5f2ef"/>
    <circle cx="483" cy="184" r="20" fill="#ffd34b"/>
    <circle cx="483" cy="184" r="9" fill="#fff5d4"/>
  </g>
  <g transform="translate(292 176)">
    <path d="M346 228c42 20 76 72 60 122-10 33-46 46-77 28-28-16-43-51-41-84 3-42 21-70 58-66z" fill="#fff7f0"/>
    <path d="M320 242c48 10 77 55 68 99" fill="none" stroke="#ff7d29" stroke-width="16" stroke-linecap="round"/>
    <rect x="243" y="146" width="142" height="134" rx="24" fill="#df2415"/>
    <rect x="258" y="162" width="112" height="102" rx="16" fill="#f13f1d"/>
    <text x="314" y="212" fill="#fff5ef" font-family="Trebuchet MS, Verdana, sans-serif" font-size="28" font-weight="900" text-anchor="middle">FOX</text>
    <text x="314" y="240" fill="#fff5ef" font-family="Trebuchet MS, Verdana, sans-serif" font-size="22" font-weight="900" text-anchor="middle">DELIVERY</text>
  </g>
  <g transform="translate(224 80)">
    <path d="M168 354c-26 17-45 41-63 74-10 19-15 33-21 58h54c14-41 34-77 66-108z" fill="#2b1715"/>
    <path d="M318 334c18 18 32 38 42 64 10 27 14 49 14 86h-60c-2-45-15-86-36-122z" fill="#2b1715"/>
    <rect x="180" y="210" width="144" height="160" rx="48" fill="#e12818"/>
    <path d="M178 230c18-20 45-30 78-30 38 0 67 10 88 31" fill="none" stroke="#ff7f2b" stroke-width="20" stroke-linecap="round"/>
    <path d="M178 272c36 18 94 24 168 10" fill="none" stroke="#bf1f15" stroke-width="12" stroke-linecap="round"/>
    <path d="M188 184c18-23 40-39 66-48 22-8 42-10 62-6 22 4 44 15 64 33l-34 44c-17-11-35-18-55-21-23-3-50 5-78 23z" fill="#e72b1a"/>
    <path d="M150 228c-40 6-62 34-86 82l52 16c16-29 32-48 48-58z" fill="#e12818"/>
    <path d="M92 294c-34 14-61 46-84 74l48 40c24-28 47-53 72-64z" fill="#ff8440"/>
    <path d="M368 219c30 16 49 40 64 76l-52 22c-10-23-24-41-42-54z" fill="#e12818"/>
    <ellipse cx="250" cy="120" rx="118" ry="98" fill="url(#foxCoat)"/>
    <ellipse cx="250" cy="137" rx="78" ry="68" fill="#fff6ee"/>
    <path d="M172 58l-50-70 92 30z" fill="#ff8c32"/>
    <path d="M330 58l54-70-96 30z" fill="#ff8c32"/>
    <path d="M203 39l-18-36 34 21z" fill="#fff2df"/>
    <path d="M297 39l18-36-34 21z" fill="#fff2df"/>
    <ellipse cx="218" cy="122" rx="13" ry="18" fill="#2b1715"/>
    <ellipse cx="286" cy="122" rx="13" ry="18" fill="#2b1715"/>
    <ellipse cx="214" cy="118" rx="4" ry="5" fill="#fff"/>
    <ellipse cx="282" cy="118" rx="4" ry="5" fill="#fff"/>
    <path d="M226 170c16 14 34 14 50 0" fill="none" stroke="#2b1715" stroke-width="8" stroke-linecap="round"/>
    <path d="M250 150l-16 18h32z" fill="#2b1715"/>
    <path d="M196 70c35-18 72-18 109 0" fill="none" stroke="#cb3a18" stroke-width="10" stroke-linecap="round"/>
    <path d="M182 40c27-15 70-24 137-8l-6 26c-54-10-90-7-120 7z" fill="#e22717"/>
    <path d="M198 26h108c20 0 32 10 34 28l-154 2c2-18 10-30 12-30z" fill="#e42317"/>
    <path d="M226 26c14-10 34-16 48-16 18 0 37 6 50 16" fill="none" stroke="#ff8d3a" stroke-width="8" stroke-linecap="round"/>
    <path d="M229 48h70" stroke="#fff1e5" stroke-width="6" stroke-linecap="round"/>
    <path d="M94 278l30-64 78 28-36 68z" fill="url(#bagPaper)"/>
    <path d="M118 228c12-22 18-30 36-42" fill="none" stroke="#b06d31" stroke-width="8" stroke-linecap="round"/>
    <rect x="114" y="270" width="60" height="16" rx="8" fill="#db2918"/>
    <text x="144" y="258" fill="#b02218" font-family="Trebuchet MS, Verdana, sans-serif" font-size="26" font-weight="900" text-anchor="middle">FOX</text>
    <text x="144" y="285" fill="#7c2d18" font-family="Trebuchet MS, Verdana, sans-serif" font-size="16" font-weight="900" text-anchor="middle">DELIVERY</text>
    <path d="M110 220l18-34 16 22-14 24z" fill="#6fae54"/>
    <rect x="142" y="176" width="22" height="44" rx="8" fill="#79c6ed"/>
    <path d="M168 200l18-24 34 20-18 22z" fill="#f5c16f"/>
  </g>
</svg>
