<svg xmlns="http://www.w3.org/2000/svg" viewBox="0 0 300 90" role="img" aria-label="Fox Delivery">
  <defs>
    <linearGradient id="foxBrandFur" x1="0" y1="0" x2="1" y2="1">
      <stop offset="0" stop-color="#ffbf55"/>
      <stop offset="1" stop-color="#ff5b24"/>
    </linearGradient>
    <linearGradient id="foxBrandBadge" x1="0" y1="0" x2="1" y2="1">
      <stop offset="0" stop-color="#ff6f24"/>
      <stop offset="1" stop-color="#db1e12"/>
    </linearGradient>
  </defs>
  <g transform="translate(4 8)">
    <rect x="0" y="0" width="64" height="64" rx="18" fill="url(#foxBrandBadge)"/>
    <path d="M14 24l10-12 10 18-10 7z" fill="#ffd391"/>
    <path d="M50 24L40 12 30 30l10 7z" fill="#ff9f3b"/>
    <ellipse cx="32" cy="34" rx="18" ry="16" fill="url(#foxBrandFur)"/>
    <ellipse cx="32" cy="40" rx="12" ry="10" fill="#fff5ec"/>
    <circle cx="27" cy="34" r="2.6" fill="#35150f"/>
    <circle cx="38" cy="34" r="2.6" fill="#35150f"/>
    <path d="M27 44c3 3 7 3 10 0" fill="none" stroke="#35150f" stroke-width="3" stroke-linecap="round"/>
    <path d="M17 52c8 7 22 8 30 1" fill="none" stroke="#fff1e8" stroke-width="4" stroke-linecap="round"/>
  </g>
  <g fill="#fff" font-family="Trebuchet MS, Verdana, sans-serif" font-weight="900">
    <text x="80" y="41" font-size="36" letter-spacing="-1">FOX</text>
    <text x="81" y="66" font-size="22" letter-spacing="1">DELIVERY</text>
  </g>
</svg>
