<svg xmlns="http://www.w3.org/2000/svg" viewBox="0 0 420 110" role="img" aria-label="Fox Delivery">
  <defs>
    <linearGradient id="foxOrange" x1="0" y1="0" x2="1" y2="1">
      <stop offset="0" stop-color="#ff9a2b"/>
      <stop offset="1" stop-color="#ff5f17"/>
    </linearGradient>
    <linearGradient id="foxWhite" x1="0" y1="0" x2="1" y2="1">
      <stop offset="0" stop-color="#fffdfa"/>
      <stop offset="1" stop-color="#fff1e4"/>
    </linearGradient>
    <filter id="foxShadow" x="-20%" y="-20%" width="140%" height="140%">
      <feDropShadow dx="0" dy="7" stdDeviation="6" flood-color="#2f120f" flood-opacity=".18"/>
    </filter>
  </defs>
  <g filter="url(#foxShadow)">
    <g transform="translate(6 16)">
      <path d="M20 43c5-20 19-33 42-38 11-2 23-1 35 2 5-10 11-18 19-22 10-5 20-3 30 6-2 9-8 18-18 25 18 9 29 24 32 43-8 18-24 32-47 41-23 9-47 11-72 8-10-8-17-16-21-25-6-14-6-27 0-40z" fill="url(#foxOrange)"/>
      <path d="M66 60c8-14 20-22 35-22 15 0 28 8 36 21-4 11-13 19-25 25-12 5-25 8-39 8-13-1-24-5-33-12 4-8 12-15 26-20z" fill="url(#foxWhite)"/>
      <path d="M84 55c5-6 11-9 18-9 8 0 14 3 20 9-1 5-4 8-10 10l10 6c-7 6-15 9-24 9-8 0-16-3-22-7l10-7c-4-1-7-5-8-11 2 0 4 0 6 0z" fill="#1f1313"/>
      <path d="M60 42c7-18 20-31 39-39-14 2-27 7-38 16-8 6-14 14-18 23l17 0z" fill="#2f1614" fill-opacity=".18"/>
      <path d="M113 4c9-10 19-15 30-15 4 0 9 1 14 4-4 10-11 19-22 25l-22-14z" fill="#ffbc52"/>
      <path d="M56 21c-9-10-20-15-33-15-5 0-9 1-13 4 5 10 14 19 26 26l20-15z" fill="#ffbc52"/>
    </g>
    <g transform="translate(168 24)">
      <text x="0" y="40" fill="url(#foxOrange)" font-family="Trebuchet MS, Verdana, sans-serif" font-size="62" font-style="italic" font-weight="900" letter-spacing="-2">FOX</text>
      <text x="4" y="78" fill="#fff7f0" font-family="Trebuchet MS, Verdana, sans-serif" font-size="32" font-style="italic" font-weight="900" letter-spacing=".6">DELIVERY</text>
    </g>
  </g>
</svg>
