<svg xmlns="http://www.w3.org/2000/svg" viewBox="0 0 420 420" role="img" aria-label="Mascote Fox Delivery na moto">
  <defs>
    <linearGradient id="bg" x1="0" y1="0" x2="1" y2="1">
      <stop offset="0" stop-color="#ffb24a"/>
      <stop offset="1" stop-color="#ff3a1f"/>
    </linearGradient>
  </defs>
  <rect width="420" height="420" rx="36" fill="url(#bg)"/>
  <circle cx="120" cy="320" r="42" fill="#333"/>
  <circle cx="308" cy="320" r="42" fill="#333"/>
  <rect x="98" y="250" width="230" height="36" rx="18" fill="#e62020"/>
  <ellipse cx="235" cy="185" rx="92" ry="78" fill="#ff8b2b"/>
  <ellipse cx="228" cy="196" rx="64" ry="54" fill="#fff3e8"/>
  <polygon points="172,124 143,70 205,102" fill="#ff8b2b"/>
  <polygon points="292,124 326,72 258,100" fill="#ff8b2b"/>
  <circle cx="204" cy="192" r="8" fill="#232323"/>
  <circle cx="254" cy="192" r="8" fill="#232323"/>
  <path d="M214 220 Q230 236 246 220" stroke="#232323" stroke-width="6" fill="none" stroke-linecap="round"/>
  <rect x="172" y="242" width="110" height="70" rx="14" fill="#db1414"/>
  <rect x="122" y="126" width="78" height="90" rx="10" fill="#f3ca85"/>
  <text x="138" y="176" font-size="28" font-family="Arial" font-weight="700" fill="#b60f0f">FOX</text>
</svg>
