<svg xmlns="http://www.w3.org/2000/svg" viewBox="0 0 170 120" role="img" aria-label="Entregador parceiro">
  <defs>
    <linearGradient id="riderBody" x1="0" y1="0" x2="1" y2="1">
      <stop offset="0" stop-color="#ff7c27"/>
      <stop offset="1" stop-color="#dc2016"/>
    </linearGradient>
  </defs>
  <ellipse cx="88" cy="103" rx="58" ry="10" fill="#f8d7c3"/>
  <circle cx="56" cy="86" r="15" fill="#343434"/>
  <circle cx="112" cy="86" r="15" fill="#343434"/>
  <circle cx="56" cy="86" r="7" fill="#f6f6f6"/>
  <circle cx="112" cy="86" r="7" fill="#f6f6f6"/>
  <path d="M47 82l20-28h23l24 26" fill="none" stroke="#74311a" stroke-width="6" stroke-linecap="round" stroke-linejoin="round"/>
  <path d="M53 79h58c8 0 11-10 7-16l-7-11H79l-16 27z" fill="url(#riderBody)"/>
  <rect x="27" y="46" width="32" height="22" rx="6" fill="#ea3019"/>
  <rect x="97" y="36" width="22" height="16" rx="4" fill="#ea3019"/>
  <circle cx="88" cy="31" r="10" fill="#ffb45e"/>
  <path d="M77 43c6-9 15-11 23-6" fill="none" stroke="#ea3019" stroke-width="8" stroke-linecap="round"/>
  <path d="M82 29c4-6 12-6 17 0" fill="none" stroke="#562014" stroke-width="4" stroke-linecap="round"/>
</svg>
