<svg xmlns="http://www.w3.org/2000/svg" viewBox="0 0 160 120" role="img" aria-label="Loja parceira">
  <defs>
    <linearGradient id="storeAwning" x1="0" y1="0" x2="1" y2="1">
      <stop offset="0" stop-color="#ff8c38"/>
      <stop offset="1" stop-color="#e6381d"/>
    </linearGradient>
    <linearGradient id="storeWall" x1="0" y1="0" x2="1" y2="1">
      <stop offset="0" stop-color="#fff8f1"/>
      <stop offset="1" stop-color="#ffe6cf"/>
    </linearGradient>
  </defs>
  <ellipse cx="78" cy="104" rx="54" ry="10" fill="#f8d5c0"/>
  <rect x="32" y="34" width="92" height="58" rx="10" fill="url(#storeWall)" stroke="#efc7ad" stroke-width="2"/>
  <rect x="26" y="24" width="104" height="18" rx="9" fill="#fff2e6" stroke="#efc7ad" stroke-width="2"/>
  <path d="M28 24h100l-7 22H35z" fill="url(#storeAwning)"/>
  <path d="M42 24v22M58 24v22M74 24v22M90 24v22M106 24v22" stroke="#fff5ec" stroke-width="4" stroke-linecap="round"/>
  <rect x="46" y="52" width="24" height="40" rx="4" fill="#ffcc8e" stroke="#d78a41" stroke-width="2"/>
  <rect x="78" y="52" width="34" height="20" rx="4" fill="#cdefff" stroke="#71bdd8" stroke-width="2"/>
  <path d="M42 94h72" stroke="#e5bda7" stroke-width="4" stroke-linecap="round"/>
  <path d="M24 84c8-7 16-7 24 0M116 84c6-6 13-6 19 0" fill="none" stroke="#7db46a" stroke-width="4" stroke-linecap="round"/>
  <circle cx="30" cy="84" r="8" fill="#8cc56f"/>
  <circle cx="125" cy="84" r="7" fill="#8cc56f"/>
</svg>
